PathFileType	4	(X/Y/Z)	 C:\Users\z3550257\Dropbox\University\GitHubClones\TheiaOpensim\ExampleData\P01_procesed_with_single_calib\C3D_data\jump_0_Theia.trc
DataRate	CameraRate	NumFrames	NumMarkers	Units	OrigDataRate	OrigDataStartFrame	OrigNumFrames
100	100	10	40	m	100	1243	2485
Frame#	Time	PELVIS1			LHIP			LKNEE			LANK			LMTP			RHIP			RKNEE			RANK			RMTP			CVJ			TORSO			LSHO			LELB			LWRIST			RSHO			RELB			RWRIST			LCALC			RCALC			LTOE			RTOE			LHAND			RHAND			HEAD_CENTRE			TORSO_LOW			LTHI			RTHI			LSHA			RSHA			L_LCALC			R_LCALC			LUA			RUA			LFRM			RFRM			HEAD_L			HEAD_R			TORSO_L			TORSO_R			PELVIS2			
		X1	Y1	Z1	X2	Y2	Z2	X3	Y3	Z3	X4	Y4	Z4	X5	Y5	Z5	X6	Y6	Z6	X7	Y7	Z7	X8	Y8	Z8	X9	Y9	Z9	X10	Y10	Z10	X11	Y11	Z11	X12	Y12	Z12	X13	Y13	Z13	X14	Y14	Z14	X15	Y15	Z15	X16	Y16	Z16	X17	Y17	Z17	X18	Y18	Z18	X19	Y19	Z19	X20	Y20	Z20	X21	Y21	Z21	X22	Y22	Z22	X23	Y23	Z23	X24	Y24	Z24	X25	Y25	Z25	X26	Y26	Z26	X27	Y27	Z27	X28	Y28	Z28	X29	Y29	Z29	X30	Y30	Z30	X31	Y31	Z31	X32	Y32	Z32	X33	Y33	Z33	X34	Y34	Z34	X35	Y35	Z35	X36	Y36	Z36	X37	Y37	Z37	X38	Y38	Z38	X39	Y39	Z39	X40	Y40	Z40	
1243	12.4300	0.442563	1.304082	-0.105966	0.445441	1.211123	-0.196808	0.430148	0.820875	-0.247125	0.344768	0.433657	-0.280192	0.402179	0.282390	-0.284835	0.449448	1.211744	-0.014704	0.439031	0.821867	0.025337	0.310741	0.442532	0.029992	0.372588	0.294513	0.015179	0.481795	1.926596	-0.119620	0.511522	1.836836	-0.116212	0.491367	1.761800	-0.290100	0.413825	1.555330	-0.505552	0.479365	1.370331	-0.337149	0.493736	1.760390	0.056699	0.385463	1.543982	0.248425	0.468104	1.334560	0.118621	0.257504	0.427017	-0.263122	0.222543	0.434514	0.015102	0.426792	0.239293	-0.287278	0.404098	0.255734	0.013688	0.512487	1.336087	-0.285628	0.500247	1.301607	0.066780	0.513650	1.964068	-0.121257	0.502467	1.582462	-0.113819	0.425301	1.022796	-0.295688	0.436918	1.020592	0.079980	0.376293	0.633919	-0.327370	0.367450	0.635442	0.092157	0.295194	0.402842	-0.308391	0.263869	0.407901	0.058302	0.465905	1.638384	-0.362946	0.459521	1.633760	0.119847	0.441561	1.495831	-0.397465	0.434188	1.470541	0.157735	0.426037	2.039791	-0.192635	0.429347	2.038758	-0.042679	0.510604	1.835465	-0.266202	0.512440	1.838208	0.033779	0.447445	1.211433	-0.105756	
1244	12.4400	0.445506	1.317410	-0.105993	0.448055	1.224399	-0.196788	0.427662	0.834169	-0.245608	0.345360	0.446741	-0.279940	0.407027	0.297380	-0.285361	0.452886	1.225136	-0.014706	0.439115	0.835166	0.023509	0.306622	0.457628	0.028492	0.368956	0.310401	0.008913	0.477333	1.941213	-0.119680	0.508417	1.850847	-0.116032	0.489405	1.775103	-0.290464	0.417095	1.567250	-0.506468	0.480831	1.382273	-0.337345	0.491186	1.774355	0.057359	0.386434	1.556287	0.249219	0.470256	1.347294	0.119534	0.258368	0.437537	-0.263186	0.218076	0.449284	0.016298	0.433026	0.255160	-0.288046	0.400991	0.272143	0.005772	0.513323	1.347930	-0.285499	0.502776	1.314431	0.067850	0.509087	1.978768	-0.121321	0.502067	1.596390	-0.113500	0.425609	1.035973	-0.294970	0.439774	1.033631	0.079195	0.375635	0.647143	-0.326533	0.366396	0.649477	0.090615	0.296810	0.414731	-0.308495	0.260957	0.422175	0.057662	0.466129	1.651225	-0.363287	0.458778	1.647196	0.120431	0.444319	1.507897	-0.398150	0.435714	1.483088	0.158628	0.421203	2.054318	-0.192535	0.424681	2.053170	-0.042585	0.507600	1.849380	-0.266023	0.509235	1.852314	0.033959	0.450471	1.224768	-0.105747	
1245	12.4500	0.448198	1.329810	-0.106066	0.450349	1.236775	-0.196846	0.425109	0.846624	-0.244094	0.346980	0.458727	-0.279797	0.413543	0.311744	-0.287331	0.456107	1.237570	-0.014792	0.438496	0.847594	0.021508	0.303955	0.471182	0.027498	0.367374	0.325001	0.004165	0.473037	1.954620	-0.119780	0.505466	1.863834	-0.115922	0.487651	1.787579	-0.290783	0.420147	1.578504	-0.507247	0.482498	1.393527	-0.337562	0.488787	1.787327	0.057901	0.387035	1.568092	0.250090	0.471929	1.359469	0.120516	0.260512	0.446414	-0.262798	0.215243	0.462071	0.017515	0.441136	0.270646	-0.290706	0.400041	0.287401	-0.000292	0.514497	1.358657	-0.285776	0.505222	1.326879	0.069146	0.504713	1.992236	-0.121458	0.501813	1.609327	-0.113222	0.425468	1.048267	-0.294244	0.441860	1.045749	0.078230	0.375247	0.659413	-0.325707	0.365510	0.662395	0.089197	0.299428	0.425436	-0.308538	0.259480	0.434817	0.057372	0.466417	1.663295	-0.363581	0.457907	1.659803	0.121033	0.447403	1.519351	-0.398821	0.436746	1.495098	0.159557	0.416637	2.067571	-0.192650	0.420212	2.066502	-0.042703	0.504646	1.862256	-0.265911	0.506287	1.865412	0.034068	0.453228	1.237172	-0.105819	
1246	12.4600	0.450611	1.341345	-0.106093	0.452354	1.248337	-0.196909	0.422972	0.858299	-0.242665	0.349130	0.469798	-0.279616	0.420549	0.325404	-0.290474	0.459077	1.249088	-0.014888	0.437559	0.859170	0.019471	0.302488	0.483251	0.026758	0.367217	0.338088	0.000956	0.469001	1.966845	-0.119948	0.502726	1.875769	-0.115901	0.486165	1.799224	-0.291020	0.422816	1.589101	-0.507799	0.484399	1.404181	-0.337718	0.486617	1.799267	0.058257	0.387290	1.579325	0.250926	0.473208	1.371065	0.121416	0.263395	0.454217	-0.261840	0.213736	0.473200	0.018358	0.449734	0.285551	-0.294949	0.400526	0.301161	-0.004377	0.516255	1.368607	-0.286336	0.507505	1.338947	0.070414	0.500602	2.004518	-0.121694	0.501721	1.621244	-0.112987	0.425152	1.059764	-0.293519	0.443385	1.056975	0.077204	0.375125	0.670850	-0.324866	0.364871	0.674209	0.087854	0.302409	0.435329	-0.308362	0.259013	0.446076	0.057158	0.466751	1.674596	-0.363779	0.456971	1.671529	0.121565	0.450446	1.530178	-0.399344	0.437364	1.506538	0.160412	0.412363	2.079562	-0.192983	0.415981	2.078745	-0.043037	0.501795	1.874053	-0.265888	0.503657	1.877486	0.034086	0.455716	1.248713	-0.105899	
1247	12.4700	0.452754	1.352043	-0.106012	0.454131	1.259121	-0.196924	0.421543	0.869199	-0.241381	0.351434	0.480082	-0.279288	0.427147	0.338272	-0.294409	0.461788	1.259712	-0.014938	0.436617	0.869880	0.017506	0.301990	0.493944	0.026042	0.367957	0.349564	-0.000819	0.465321	1.977941	-0.120211	0.500258	1.886648	-0.115982	0.484930	1.810024	-0.291167	0.424997	1.598993	-0.508071	0.486490	1.414233	-0.337745	0.484727	1.810170	0.058411	0.387272	1.589883	0.251635	0.474187	1.382016	0.122115	0.266594	0.461385	-0.260269	0.213274	0.483006	0.018525	0.457747	0.299677	-0.300307	0.401839	0.313223	-0.006538	0.518687	1.378072	-0.286998	0.509585	1.350544	0.071471	0.496838	2.015678	-0.122047	0.501782	1.632131	-0.112797	0.424880	1.070499	-0.292808	0.444562	1.067316	0.076214	0.375250	0.681517	-0.323990	0.364552	0.684936	0.086536	0.305289	0.444657	-0.307852	0.259200	0.456204	0.056785	0.467088	1.685103	-0.363851	0.456040	1.682336	0.121970	0.453077	1.540290	-0.399617	0.437706	1.517336	0.161119	0.408430	2.090359	-0.193504	0.412063	2.089903	-0.043557	0.499126	1.884758	-0.265965	0.501390	1.888538	0.034000	0.457959	1.259416	-0.105931	
1248	12.4800	0.454660	1.361897	-0.105804	0.455750	1.269114	-0.196864	0.420935	0.879290	-0.240282	0.353654	0.489634	-0.278744	0.432782	0.350239	-0.298707	0.464244	1.269442	-0.014913	0.435896	0.879698	0.015675	0.302263	0.503399	0.025179	0.369203	0.359457	-0.001381	0.462079	1.987963	-0.120579	0.498108	1.896485	-0.116168	0.483871	1.819943	-0.291232	0.426659	1.608088	-0.508062	0.488704	1.423617	-0.337609	0.483135	1.820055	0.058401	0.387073	1.599646	0.252161	0.474966	1.392224	0.122550	0.269815	0.468188	-0.258129	0.213621	0.491773	0.017874	0.464508	0.312821	-0.306227	0.403531	0.323540	-0.007016	0.521721	1.387221	-0.287566	0.511477	1.361509	0.072242	0.493500	2.025776	-0.122511	0.501966	1.641997	-0.112652	0.424806	1.080457	-0.292126	0.445586	1.076763	0.075318	0.375608	0.691407	-0.323077	0.364614	0.694596	0.085202	0.307801	0.453523	-0.306949	0.259798	0.465409	0.056105	0.467372	1.694765	-0.363791	0.455175	1.692198	0.122227	0.455051	1.549564	-0.399593	0.437923	1.527389	0.161643	0.404898	2.100050	-0.194157	0.408537	2.099983	-0.044206	0.496721	1.894385	-0.266145	0.499495	1.898585	0.033809	0.459997	1.269278	-0.105889	
1249	12.4900	0.456372	1.370877	-0.105497	0.457281	1.278267	-0.196737	0.421125	0.888506	-0.239392	0.355684	0.498442	-0.277957	0.437213	0.361168	-0.302935	0.466456	1.278266	-0.014817	0.435540	0.888590	0.013991	0.303153	0.511748	0.024084	0.370703	0.367881	-0.001050	0.459329	1.996953	-0.121041	0.496299	1.905307	-0.116440	0.482904	1.828917	-0.291231	0.427830	1.616280	-0.507814	0.490983	1.432230	-0.337322	0.481821	1.828947	0.058299	0.386784	1.608495	0.252492	0.475644	1.401574	0.122715	0.272884	0.474738	-0.255537	0.214596	0.499706	0.016453	0.469735	0.324789	-0.312150	0.405305	0.332184	-0.006218	0.525149	1.396062	-0.287885	0.513233	1.371639	0.072741	0.490639	2.034854	-0.123058	0.502232	1.650862	-0.112549	0.425030	1.089584	-0.291504	0.446611	1.085296	0.074531	0.376199	0.700461	-0.322135	0.365101	0.703213	0.083821	0.309853	0.461908	-0.305655	0.260678	0.473825	0.055079	0.467561	1.703501	-0.363619	0.454417	1.701092	0.122356	0.456317	1.557888	-0.399298	0.438125	1.536578	0.161984	0.401820	2.108707	-0.194877	0.405455	2.108994	-0.044924	0.494654	1.902970	-0.266411	0.497944	1.907644	0.033531	0.461869	1.278267	-0.105777	
1250	12.5000	0.457923	1.378940	-0.105151	0.458774	1.286513	-0.196578	0.422012	0.896774	-0.238724	0.357510	0.506446	-0.276936	0.440442	0.370905	-0.306716	0.468427	1.286168	-0.014681	0.435615	0.896524	0.012428	0.304553	0.519089	0.022759	0.372318	0.374987	-0.000205	0.457082	2.004932	-0.121559	0.494827	1.913140	-0.116761	0.481979	1.836861	-0.291176	0.428588	1.623480	-0.507405	0.493289	1.439963	-0.336940	0.480742	1.836861	0.058185	0.386476	1.616333	0.252649	0.476303	1.409957	0.122662	0.275712	0.481027	-0.252668	0.216068	0.506911	0.014483	0.473452	0.335394	-0.317567	0.407000	0.339293	-0.004669	0.528688	1.404453	-0.287873	0.514897	1.380725	0.073042	0.488270	2.042932	-0.123637	0.502536	1.658746	-0.112479	0.425603	1.097807	-0.290976	0.447729	1.092892	0.073829	0.377031	0.708596	-0.321192	0.366035	0.710812	0.082389	0.311485	0.469719	-0.304035	0.261819	0.481498	0.053776	0.467647	1.711227	-0.363369	0.453784	1.708996	0.122400	0.457018	1.565190	-0.398815	0.438344	1.544784	0.162152	0.399226	2.116368	-0.195614	0.402825	2.116939	-0.045660	0.492976	1.910558	-0.266726	0.496678	1.915721	0.033205	0.463600	1.286341	-0.105629	
1251	12.5100	0.459332	1.386046	-0.104834	0.460258	1.293789	-0.196431	0.423465	0.904032	-0.238279	0.359173	0.513566	-0.275728	0.442627	0.379308	-0.309758	0.470151	1.293131	-0.014547	0.436122	0.903478	0.010947	0.306395	0.525477	0.021278	0.374002	0.380921	0.000756	0.455308	2.011902	-0.122086	0.493669	1.919997	-0.117080	0.481101	1.843694	-0.291063	0.429037	1.629640	-0.506917	0.495599	1.446724	-0.336548	0.479839	1.843802	0.058113	0.386193	1.623097	0.252667	0.477004	1.417283	0.122479	0.278264	0.486981	-0.249719	0.217955	0.513409	0.012291	0.475866	0.344476	-0.322078	0.408564	0.345030	-0.002941	0.532042	1.412159	-0.287536	0.516480	1.388601	0.073227	0.486364	2.050010	-0.124199	0.502845	1.665657	-0.112431	0.426534	1.105054	-0.290578	0.448969	1.099535	0.073170	0.378115	0.715732	-0.320279	0.367407	0.717411	0.080924	0.312802	0.476831	-0.302193	0.263271	0.488394	0.052337	0.467666	1.717868	-0.363077	0.453271	1.715894	0.122398	0.457419	1.571447	-0.398261	0.438537	1.551907	0.162163	0.397108	2.123030	-0.196342	0.400606	2.123827	-0.046385	0.491709	1.917187	-0.267041	0.495630	1.922807	0.032880	0.465205	1.293460	-0.105489	
1252	12.5200	0.460605	1.392166	-0.104599	0.461742	1.300047	-0.196332	0.425357	0.910238	-0.238038	0.360728	0.519733	-0.274404	0.443999	0.386275	-0.311880	0.471625	1.299140	-0.014450	0.437014	0.909438	0.009519	0.308642	0.530920	0.019752	0.375774	0.385799	0.001468	0.453943	2.017858	-0.122579	0.492790	1.925882	-0.117350	0.480326	1.849363	-0.290879	0.429297	1.634764	-0.506424	0.497888	1.452446	-0.336236	0.479048	1.849769	0.058095	0.385953	1.628773	0.252580	0.477771	1.423497	0.122262	0.280531	0.492500	-0.246887	0.220206	0.519149	0.010223	0.477272	0.351919	-0.325414	0.410037	0.349555	-0.001568	0.534964	1.418919	-0.286947	0.517953	1.395179	0.073361	0.484857	2.056081	-0.124707	0.503141	1.671592	-0.112389	0.427800	1.111273	-0.290325	0.450305	1.105215	0.072522	0.379451	0.721817	-0.319430	0.369180	0.723024	0.079465	0.313924	0.483128	-0.300262	0.265116	0.494418	0.050923	0.467679	1.723391	-0.362769	0.452855	1.721782	0.122372	0.457814	1.576681	-0.397745	0.438618	1.557886	0.162025	0.395410	2.128667	-0.197050	0.398727	2.129674	-0.047091	0.490843	1.922881	-0.267307	0.494738	1.928883	0.032607	0.466683	1.299594	-0.105391	
